<?xml version="1.0" encoding="utf-8"?>
<!-- Generator: Adobe Illustrator 27.0.0, SVG Export Plug-In . SVG Version: 6.00 Build 0)  -->
<svg version="1.1" id="Ebene_1" xmlns="http://www.w3.org/2000/svg" xmlns:xlink="http://www.w3.org/1999/xlink" x="0px" y="0px"
	 viewBox="0 0 595.28 595.28" style="enable-background:new 0 0 595.28 595.28;" xml:space="preserve">
<style type="text/css">
	.st0{fill:#009FE3;}
</style>
<g>
	<path class="st0" d="M297.64,510.24c-117.23,0-212.6-95.37-212.6-212.6c0-117.23,95.37-212.6,212.6-212.6s212.6,95.37,212.6,212.6
		C510.24,414.87,414.87,510.24,297.64,510.24z M297.64,102.04c-107.85,0-195.6,87.75-195.6,195.6c0,107.85,87.75,195.6,195.6,195.6
		s195.6-87.75,195.6-195.6C493.24,189.79,405.49,102.04,297.64,102.04z"/>
	<path class="st0" d="M297.64,410.65c-62.32,0-113.02-50.7-113.02-113.02s50.7-113.02,113.02-113.02
		c62.32,0,113.02,50.7,113.02,113.02S359.95,410.65,297.64,410.65z M297.64,201.62c-52.94,0-96.02,43.07-96.02,96.02
		c0,52.94,43.07,96.02,96.02,96.02c52.94,0,96.02-43.07,96.02-96.02C393.65,244.69,350.58,201.62,297.64,201.62z"/>
	<path class="st0" d="M297.43,460.71c-89.72,0-162.72-73.15-162.72-163.07c0-89.92,72.99-163.07,162.72-163.07
		c43.56,0,84.48,17.03,115.24,47.96l5.97,6l-109.2,109.46l108.88,109.13l-6.01,6C381.59,443.81,340.79,460.71,297.43,460.71z
		 M297.43,151.56c-80.35,0-145.72,65.53-145.72,146.07c0,80.55,65.37,146.07,145.72,146.07c35.98,0,69.99-13,96.68-36.79
		L285.43,297.99l109.05-109.31C367.74,164.68,333.6,151.56,297.43,151.56z"/>
</g>
</svg>
